<svg id="SvgjsSvg1006" width="753.65625" height="551.59375" xmlns="http://www.w3.org/2000/svg" version="1.1" xmlns:xlink="http://www.w3.org/1999/xlink" xmlns:svgjs="http://svgjs.com/svgjs"><defs id="SvgjsDefs1007"><marker id="SvgjsMarker1123" markerWidth="14" markerHeight="10" refX="10" refY="5" viewBox="0 0 14 10" orient="auto" markerUnits="userSpaceOnUse" stroke-dasharray="0,0"><path id="SvgjsPath1124" d="M0,0 L14,5 L0,10 L0,0" fill="#ffcc99" stroke="#ffcc99" stroke-width="1"></path></marker><marker id="SvgjsMarker1127" markerWidth="14" markerHeight="10" refX="10" refY="5" viewBox="0 0 14 10" orient="auto" markerUnits="userSpaceOnUse" stroke-dasharray="0,0"><path id="SvgjsPath1128" d="M0,0 L14,5 L0,10 L0,0" fill="#ffcc99" stroke="#ffcc99" stroke-width="1"></path></marker><marker id="SvgjsMarker1131" markerWidth="14" markerHeight="10" refX="10" refY="5" viewBox="0 0 14 10" orient="auto" markerUnits="userSpaceOnUse" stroke-dasharray="0,0"><path id="SvgjsPath1132" d="M0,0 L14,5 L0,10 L0,0" fill="#99ff99" stroke="#99ff99" stroke-width="1"></path></marker><marker id="SvgjsMarker1149" markerWidth="14" markerHeight="10" refX="4" refY="5" viewBox="0 0 14 10" orient="auto" markerUnits="userSpaceOnUse" stroke-dasharray="0,0"><path id="SvgjsPath1150" d="M14,0 L0,5 L14,10 L14,0" fill="#66ffb3" stroke="#66ffb3" stroke-width="1"></path></marker><marker id="SvgjsMarker1153" markerWidth="14" markerHeight="10" refX="4" refY="5" viewBox="0 0 14 10" orient="auto" markerUnits="userSpaceOnUse" stroke-dasharray="0,0"><path id="SvgjsPath1154" d="M14,0 L0,5 L14,10 L14,0" fill="#66ffb3" stroke="#66ffb3" stroke-width="1"></path></marker><marker id="SvgjsMarker1157" markerWidth="14" markerHeight="10" refX="10" refY="5" viewBox="0 0 14 10" orient="auto" markerUnits="userSpaceOnUse" stroke-dasharray="0,0"><path id="SvgjsPath1158" d="M0,0 L14,5 L0,10 L0,0" fill="#99ff99" stroke="#99ff99" stroke-width="1"></path></marker><marker id="SvgjsMarker1185" markerWidth="14" markerHeight="10" refX="10" refY="5" viewBox="0 0 14 10" orient="auto" markerUnits="userSpaceOnUse" stroke-dasharray="0,0"><path id="SvgjsPath1186" d="M0,0 L14,5 L0,10 L0,0" fill="#323232" stroke="#323232" stroke-width="1"></path></marker><marker id="SvgjsMarker1189" markerWidth="14" markerHeight="10" refX="10" refY="5" viewBox="0 0 14 10" orient="auto" markerUnits="userSpaceOnUse" stroke-dasharray="0,0"><path id="SvgjsPath1190" d="M0,0 L14,5 L0,10 L0,0" fill="#323232" stroke="#323232" stroke-width="1"></path></marker><marker id="SvgjsMarker1193" markerWidth="14" markerHeight="10" refX="10" refY="5" viewBox="0 0 14 10" orient="auto" markerUnits="userSpaceOnUse" stroke-dasharray="0,0"><path id="SvgjsPath1194" d="M0,0 L14,5 L0,10 L0,0" fill="#323232" stroke="#323232" stroke-width="1"></path></marker><marker id="SvgjsMarker1197" markerWidth="14" markerHeight="10" refX="10" refY="5" viewBox="0 0 14 10" orient="auto" markerUnits="userSpaceOnUse" stroke-dasharray="0,0"><path id="SvgjsPath1198" d="M0,0 L14,5 L0,10 L0,0" fill="#323232" stroke="#323232" stroke-width="1"></path></marker></defs><g id="SvgjsG1008" transform="translate(37,398)"><path id="SvgjsPath1009" d="M 0 10.5L 691 10.5" stroke-dasharray="10,6" stroke="rgba(136,136,136,1)" stroke-width="1" fill="none"></path><path id="SvgjsPath1010" d="M 0 0L 691 0L 691 21L 0 21Z" stroke="none" fill="none"></path></g><g id="SvgjsG1011" transform="translate(26,290.2302427982811)"><path id="SvgjsPath1012" d="M 0 10.5L 691 10.5" stroke-dasharray="10,6" stroke="rgba(136,136,136,1)" stroke-width="1" fill="none"></path><path id="SvgjsPath1013" d="M 0 0L 691 0L 691 21L 0 21Z" stroke="none" fill="none"></path></g><g id="SvgjsG1014" transform="translate(26,76.2302427982811)"><path id="SvgjsPath1015" d="M 0 10.5L 691 10.5" stroke-dasharray="10,6" stroke="rgba(136,136,136,1)" stroke-width="1" fill="none"></path><path id="SvgjsPath1016" d="M 0 0L 691 0L 691 21L 0 21Z" stroke="none" fill="none"></path></g><g id="SvgjsG1017" transform="translate(139.5,25)"><path id="SvgjsPath1018" d="M 0 4Q 0 0 4 0L 453.44057948271484 0Q 457.44057948271484 0 457.44057948271484 4L 457.44057948271484 50Q 457.44057948271484 54 453.44057948271484 54L 4 54Q 0 54 0 50Z" stroke="none" fill-opacity="1" fill="#66ffb3"></path><g id="SvgjsG1019"><text id="SvgjsText1020" font-family="微软雅黑" text-anchor="middle" font-size="13px" width="438px" fill="#323232" font-weight="400" align="middle" lineHeight="125%" anchor="middle" family="微软雅黑" size="13px" weight="400" font-style="" opacity="1" y="16.375" transform="rotate(0)"></text></g></g><g id="SvgjsG1021" transform="translate(133.39209768256728,423.0110497237571)"><path id="SvgjsPath1022" d="M 0 4Q 0 0 4 0L 459.54848180014756 0Q 463.54848180014756 0 463.54848180014756 4L 463.54848180014756 74.57458563535897Q 463.54848180014756 78.57458563535897 459.54848180014756 78.57458563535897L 4 78.57458563535897Q 0 78.57458563535897 0 74.57458563535897Z" stroke="none" fill-opacity="1" fill="#99ccff"></path><g id="SvgjsG1023"><text id="SvgjsText1024" font-family="微软雅黑" text-anchor="middle" font-size="13px" width="444px" fill="#323232" font-weight="400" align="middle" lineHeight="125%" anchor="middle" family="微软雅黑" size="13px" weight="400" font-style="" opacity="1" y="28.662292817679486" transform="rotate(0)"></text></g></g><g id="SvgjsG1025" transform="translate(37.66633858264106,440.79834254143657)"><path id="SvgjsPath1026" d="M 0 0L 95 0L 95 43L 0 43Z" stroke="none" fill="none"></path><g id="SvgjsG1027"><text id="SvgjsText1028" font-family="微软雅黑" text-anchor="middle" font-size="13px" width="95px" fill="#323232" font-weight="400" align="middle" lineHeight="125%" anchor="middle" family="微软雅黑" size="13px" weight="400" font-style="" opacity="1" y="2.375" transform="rotate(0)"><tspan id="SvgjsTspan1029" dy="16" x="47.5"><tspan id="SvgjsTspan1030" style="text-decoration:;">Actuation </tspan></tspan><tspan id="SvgjsTspan1031" dy="16" x="47.5"><tspan id="SvgjsTspan1032" style="text-decoration:;">Layer</tspan></tspan></text></g></g><g id="SvgjsG1033" transform="translate(169.83267716528212,440.0658382552764)"><path id="SvgjsPath1034" d="M 0 0L 175.16633858264106 0L 175.16633858264106 44.46500857232036L 0 44.46500857232036Z" stroke="rgba(50,50,50,1)" stroke-width="2" fill-opacity="1" fill="#ffffff"></path><g id="SvgjsG1035"><text id="SvgjsText1036" font-family="微软雅黑" text-anchor="middle" font-size="13px" width="156px" fill="#323232" font-weight="400" align="middle" lineHeight="125%" anchor="middle" family="微软雅黑" size="13px" weight="400" font-style="" opacity="1" y="3.1075042861601787" transform="rotate(0)"><tspan id="SvgjsTspan1037" dy="16" x="88"><tspan id="SvgjsTspan1038" style="text-decoration:;">Controller</tspan></tspan><tspan id="SvgjsTspan1039" dy="16" x="88"><tspan id="SvgjsTspan1040" style="text-decoration:;">(IDM, CFM, OVM, etc)</tspan></tspan></text></g></g><g id="SvgjsG1041" transform="translate(430,440.0658382552764)"><path id="SvgjsPath1042" d="M 0 0L 132 0L 132 44.46500857232036L 0 44.46500857232036Z" stroke="rgba(50,50,50,1)" stroke-width="2" fill-opacity="1" fill="#ffffff"></path><g id="SvgjsG1043"><text id="SvgjsText1044" font-family="微软雅黑" text-anchor="middle" font-size="13px" width="112px" fill="#323232" font-weight="400" align="middle" lineHeight="125%" anchor="middle" family="微软雅黑" size="13px" weight="400" font-style="" opacity="1" y="3.1075042861601787" transform="rotate(0)"><tspan id="SvgjsTspan1045" dy="16" x="66"><tspan id="SvgjsTspan1046" style="text-decoration:;">Speed,</tspan></tspan><tspan id="SvgjsTspan1047" dy="16" x="66"><tspan id="SvgjsTspan1048" style="text-decoration:;font-size: inherit;">Steering</tspan></tspan></text></g></g><g id="SvgjsG1049" transform="translate(133.39209768256734,311)"><path id="SvgjsPath1050" d="M 0 4Q 0 0 4 0L 459.54848180014744 0Q 463.54848180014744 0 463.54848180014744 4L 463.54848180014744 73.75760446136127Q 463.54848180014744 77.75760446136127 459.54848180014744 77.75760446136127L 4 77.75760446136127Q 0 77.75760446136127 0 73.75760446136127Z" stroke="none" fill-opacity="1" fill="#99ff99"></path><g id="SvgjsG1051"><text id="SvgjsText1052" font-family="微软雅黑" text-anchor="middle" font-size="13px" width="444px" fill="#323232" font-weight="400" align="middle" lineHeight="125%" anchor="middle" family="微软雅黑" size="13px" weight="400" font-style="" opacity="1" y="28.253802230680634" transform="rotate(0)"></text></g></g><g id="SvgjsG1053" transform="translate(26,331)"><path id="SvgjsPath1054" d="M 0 0L 95 0L 95 43L 0 43Z" stroke="none" fill="none"></path><g id="SvgjsG1055"><text id="SvgjsText1056" font-family="微软雅黑" text-anchor="middle" font-size="13px" width="95px" fill="#323232" font-weight="400" align="middle" lineHeight="125%" anchor="middle" family="微软雅黑" size="13px" weight="400" font-style="" opacity="1" y="2.375" transform="rotate(0)"><tspan id="SvgjsTspan1057" dy="16" x="47.5"><tspan id="SvgjsTspan1058" style="text-decoration:;">Application </tspan></tspan><tspan id="SvgjsTspan1059" dy="16" x="47.5"><tspan id="SvgjsTspan1060" style="text-decoration:;">Layer</tspan></tspan></text></g></g><g id="SvgjsG1061" transform="translate(133.39209768256728,188)"><path id="SvgjsPath1062" d="M 0 4Q 0 0 4 0L 459.54848180014756 0Q 463.54848180014756 0 463.54848180014756 4L 463.54848180014756 94Q 463.54848180014756 98 459.54848180014756 98L 4 98Q 0 98 0 94Z" stroke="none" fill-opacity="1" fill="#99ff99"></path><g id="SvgjsG1063"><text id="SvgjsText1064" font-family="微软雅黑" text-anchor="middle" font-size="13px" width="444px" fill="#323232" font-weight="400" align="middle" lineHeight="125%" anchor="middle" family="微软雅黑" size="13px" weight="400" font-style="" opacity="1" y="38.375" transform="rotate(0)"></text></g></g><g id="SvgjsG1065" transform="translate(25,215.5)"><path id="SvgjsPath1066" d="M 0 0L 95 0L 95 43L 0 43Z" stroke="none" fill="none"></path><g id="SvgjsG1067"><text id="SvgjsText1068" font-family="微软雅黑" text-anchor="middle" font-size="13px" width="95px" fill="#323232" font-weight="400" align="middle" lineHeight="125%" anchor="middle" family="微软雅黑" size="13px" weight="400" font-style="" opacity="1" y="10.875" transform="rotate(0)"><tspan id="SvgjsTspan1069" dy="16" x="47.5"><tspan id="SvgjsTspan1070" style="text-decoration:;">Plan Layer</tspan></tspan></text></g></g><g id="SvgjsG1071" transform="translate(37.66633858264106,505.59668508287314)"><path id="SvgjsPath1072" d="M 0 10.5L 691 10.5" stroke-dasharray="10,6" stroke="rgba(136,136,136,1)" stroke-width="1" fill="none"></path><path id="SvgjsPath1073" d="M 0 0L 691 0L 691 21L 0 21Z" stroke="none" fill="none"></path></g><g id="SvgjsG1074" transform="translate(307.7495078739616,328)"><path id="SvgjsPath1075" d="M 0 0L 114.83366141735894 0L 114.83366141735894 43L 0 43Z" stroke="rgba(50,50,50,1)" stroke-width="2" fill-opacity="1" fill="#ffffff"></path><g id="SvgjsG1076"><text id="SvgjsText1077" font-family="微软雅黑" text-anchor="middle" font-size="13px" width="95px" fill="#323232" font-weight="400" align="middle" lineHeight="125%" anchor="middle" family="微软雅黑" size="13px" weight="400" font-style="" opacity="1" y="2.375" transform="rotate(0)"><tspan id="SvgjsTspan1078" dy="16" x="57.5"><tspan id="SvgjsTspan1079" style="text-decoration:;">Cooperative </tspan></tspan><tspan id="SvgjsTspan1080" dy="16" x="57.5"><tspan id="SvgjsTspan1081" style="text-decoration:;">Localization</tspan></tspan></text></g></g><g id="SvgjsG1082" transform="translate(25,30.5)"><path id="SvgjsPath1083" d="M 0 0L 95 0L 95 43L 0 43Z" stroke="none" fill="none"></path><g id="SvgjsG1084"><text id="SvgjsText1085" font-family="微软雅黑" text-anchor="middle" font-size="13px" width="95px" fill="#323232" font-weight="400" align="middle" lineHeight="125%" anchor="middle" family="微软雅黑" size="13px" weight="400" font-style="" opacity="1" y="10.875" transform="rotate(0)"><tspan id="SvgjsTspan1086" dy="16" x="47.5"><tspan id="SvgjsTspan1087" style="text-decoration:;">Sense Layer</tspan></tspan></text></g></g><g id="SvgjsG1088" transform="translate(324.00000000000006,36.5)"><path id="SvgjsPath1089" d="M 0 0L 95 0L 95 31L 0 31Z" stroke="rgba(50,50,50,1)" stroke-width="2" fill-opacity="1" fill="#ffffff"></path><g id="SvgjsG1090"><text id="SvgjsText1091" font-family="微软雅黑" text-anchor="middle" font-size="13px" width="75px" fill="#323232" font-weight="400" align="middle" lineHeight="125%" anchor="middle" family="微软雅黑" size="13px" weight="400" font-style="" opacity="1" y="4.875" transform="rotate(0)"><tspan id="SvgjsTspan1092" dy="16" x="47.5"><tspan id="SvgjsTspan1093" style="text-decoration:;">Sensors</tspan></tspan></text></g></g><g id="SvgjsG1094" transform="translate(26,166.2302427982811)"><path id="SvgjsPath1095" d="M 0 10.5L 691 10.5" stroke-dasharray="10,6" stroke="rgba(136,136,136,1)" stroke-width="1" fill="none"></path><path id="SvgjsPath1096" d="M 0 0L 691 0L 691 21L 0 21Z" stroke="none" fill="none"></path></g><g id="SvgjsG1097" transform="translate(25,111.5)"><path id="SvgjsPath1098" d="M 0 0L 95 0L 95 43L 0 43Z" stroke="none" fill="none"></path><g id="SvgjsG1099"><text id="SvgjsText1100" font-family="微软雅黑" text-anchor="middle" font-size="13px" width="95px" fill="#323232" font-weight="400" align="middle" lineHeight="125%" anchor="middle" family="微软雅黑" size="13px" weight="400" font-style="" opacity="1" y="2.375" transform="rotate(0)"><tspan id="SvgjsTspan1101" dy="16" x="47.5"><tspan id="SvgjsTspan1102" style="text-decoration:;">Perception </tspan></tspan><tspan id="SvgjsTspan1103" dy="16" x="47.5"><tspan id="SvgjsTspan1104" style="text-decoration:;">Layer</tspan></tspan></text></g></g><g id="SvgjsG1105" transform="translate(139.5,104)"><path id="SvgjsPath1106" d="M 0 4Q 0 0 4 0L 453.44057948271484 0Q 457.44057948271484 0 457.44057948271484 4L 457.44057948271484 54Q 457.44057948271484 58 453.44057948271484 58L 4 58Q 0 58 0 54Z" stroke="none" fill-opacity="1" fill="#ffcc99"></path><g id="SvgjsG1107"><text id="SvgjsText1108" font-family="微软雅黑" text-anchor="start" font-size="13px" width="438px" fill="#323232" font-weight="400" align="middle" lineHeight="125%" anchor="start" family="微软雅黑" size="13px" weight="400" font-style="" opacity="1" y="18.375" transform="rotate(0)"></text></g></g><g id="SvgjsG1109" transform="translate(443,117.5)"><path id="SvgjsPath1110" d="M 0 0L 95 0L 95 31L 0 31Z" stroke="rgba(50,50,50,1)" stroke-width="2" fill-opacity="1" fill="#ffffff"></path><g id="SvgjsG1111"><text id="SvgjsText1112" font-family="微软雅黑" text-anchor="middle" font-size="13px" width="75px" fill="#323232" font-weight="400" align="middle" lineHeight="125%" anchor="middle" family="微软雅黑" size="13px" weight="400" font-style="" opacity="1" y="4.875" transform="rotate(0)"><tspan id="SvgjsTspan1113" dy="16" x="47.5"><tspan id="SvgjsTspan1114" style="text-decoration:;">Localization</tspan></tspan></text></g></g><g id="SvgjsG1115" transform="translate(185,117.5)"><path id="SvgjsPath1116" d="M 0 0L 95 0L 95 31L 0 31Z" stroke="rgba(50,50,50,1)" stroke-width="2" fill-opacity="1" fill="#ffffff"></path><g id="SvgjsG1117"><text id="SvgjsText1118" font-family="微软雅黑" text-anchor="middle" font-size="13px" width="75px" fill="#323232" font-weight="400" align="middle" lineHeight="125%" anchor="middle" family="微软雅黑" size="13px" weight="400" font-style="" opacity="1" y="4.875" transform="rotate(0)"><tspan id="SvgjsTspan1119" dy="16" x="47.5"><tspan id="SvgjsTspan1120" style="text-decoration:;">Detection</tspan></tspan></text></g></g><g id="SvgjsG1121"><path id="SvgjsPath1122" d="M236.5 162L236.5 175L236.5 175L236.5 185.39999999999998" stroke="#ffcc99" stroke-width="2" fill="none" marker-end="url(#SvgjsMarker1123)"></path></g><g id="SvgjsG1125"><path id="SvgjsPath1126" d="M496.5 158.3333339691162L496.5 172.78178838369865L496.5 172.78178838369865L496.5 187.2302427982811" stroke="#ffcc99" stroke-width="2" fill="none" marker-end="url(#SvgjsMarker1127)"></path></g><g id="SvgjsG1129"><path id="SvgjsPath1130" d="M364.6681076363732 286L364.6681076363732 298.5L365.16633858264106 298.5L365.16633858264106 308.4" stroke="#99ff99" stroke-width="2" fill="none" marker-end="url(#SvgjsMarker1131)"></path></g><g id="SvgjsG1133" transform="translate(169.83267716528212,328)"><path id="SvgjsPath1134" d="M 0 0L 114.66732283471788 0L 114.66732283471788 43L 0 43Z" stroke="rgba(50,50,50,1)" stroke-width="2" fill-opacity="1" fill="#ffffff"></path><g id="SvgjsG1135"><text id="SvgjsText1136" font-family="微软雅黑" text-anchor="middle" font-size="13px" width="95px" fill="#323232" font-weight="400" align="middle" lineHeight="125%" anchor="middle" family="微软雅黑" size="13px" weight="400" font-style="" opacity="1" y="2.375" transform="rotate(0)"><tspan id="SvgjsTspan1137" dy="16" x="57.5"><tspan id="SvgjsTspan1138" style="text-decoration:;">Cooperative </tspan></tspan><tspan id="SvgjsTspan1139" dy="16" x="57.5"><tspan id="SvgjsTspan1140" style="text-decoration:;">Perception</tspan></tspan></text></g></g><g id="SvgjsG1141" transform="translate(448.5,328.1666669845581)"><path id="SvgjsPath1142" d="M 0 0L 114 0L 114 42.66666603088379L 0 42.66666603088379Z" stroke="rgba(50,50,50,1)" stroke-width="2" fill-opacity="1" fill="#ffffff"></path><g id="SvgjsG1143"><text id="SvgjsText1144" font-family="微软雅黑" text-anchor="middle" font-size="13px" width="94px" fill="#323232" font-weight="400" align="middle" lineHeight="125%" anchor="middle" family="微软雅黑" size="13px" weight="400" font-style="" opacity="1" y="10.708333015441895" transform="rotate(0)"><tspan id="SvgjsTspan1145" dy="16" x="57"><tspan id="SvgjsTspan1146" style="text-decoration:;">......</tspan></tspan></text></g></g><g id="SvgjsG1147"><path id="SvgjsPath1148" d="M232.60610311235604 104L232.60610311235604 90L232.60610311235604 90L232.60610311235604 75.99999999999997" stroke="#66ffb3" stroke-width="2" fill="none" marker-start="url(#SvgjsMarker1149)"></path></g><g id="SvgjsG1151"><path id="SvgjsPath1152" d="M492.8938968876439 104L492.8938968876439 90.11512139914055L492.8938968876439 90.11512139914055L492.8938968876439 76.2302427982811" stroke="#66ffb3" stroke-width="2" fill="none" marker-start="url(#SvgjsMarker1153)"></path></g><g id="SvgjsG1155"><path id="SvgjsPath1156" d="M365.16633858264106 388.75760446136127L365.16633858264106 405.88432709255915L365.16633858264106 405.88432709255915L365.16633858264106 423.0110497237571" stroke="#99ff99" stroke-width="2" fill="none" marker-end="url(#SvgjsMarker1157)"></path></g><g id="SvgjsG1159" transform="translate(167.5,221.5)"><path id="SvgjsPath1160" d="M 0 0L 112.5 0L 112.5 39.5L 0 39.5Z" stroke="rgba(50,50,50,1)" stroke-width="2" fill-opacity="1" fill="#ffffff"></path><g id="SvgjsG1161"><text id="SvgjsText1162" font-family="微软雅黑" text-anchor="middle" font-size="13px" width="93px" fill="#323232" font-weight="400" align="middle" lineHeight="125%" anchor="middle" family="微软雅黑" size="13px" weight="400" font-style="" opacity="1" y="0.625" transform="rotate(0)"><tspan id="SvgjsTspan1163" dy="16" x="56.5"><tspan id="SvgjsTspan1164" style="text-decoration:;">Mission </tspan></tspan><tspan id="SvgjsTspan1165" dy="16" x="56.5"><tspan id="SvgjsTspan1166" style="text-decoration:;">Planning</tspan></tspan></text></g></g><g id="SvgjsG1167" transform="translate(317.66633858264106,221.5)"><path id="SvgjsPath1168" d="M 0 0L 95 0L 95 39.5L 0 39.5Z" stroke="rgba(50,50,50,1)" stroke-width="2" fill-opacity="1" fill="#ffffff"></path><g id="SvgjsG1169"><text id="SvgjsText1170" font-family="微软雅黑" text-anchor="middle" font-size="13px" width="75px" fill="#323232" font-weight="400" align="middle" lineHeight="125%" anchor="middle" family="微软雅黑" size="13px" weight="400" font-style="" opacity="1" y="0.625" transform="rotate(0)"><tspan id="SvgjsTspan1171" dy="16" x="47.5"><tspan id="SvgjsTspan1172" style="text-decoration:;">Behavior </tspan></tspan><tspan id="SvgjsTspan1173" dy="16" x="47.5"><tspan id="SvgjsTspan1174" style="text-decoration:;">Planning</tspan></tspan></text></g></g><g id="SvgjsG1175" transform="translate(448.5,221.5)"><path id="SvgjsPath1176" d="M 0 0L 95 0L 95 39.5L 0 39.5Z" stroke="rgba(50,50,50,1)" stroke-width="2" fill-opacity="1" fill="#ffffff"></path><g id="SvgjsG1177"><text id="SvgjsText1178" font-family="微软雅黑" text-anchor="middle" font-size="13px" width="75px" fill="#323232" font-weight="400" align="middle" lineHeight="125%" anchor="middle" family="微软雅黑" size="13px" weight="400" font-style="" opacity="1" y="0.625" transform="rotate(0)"><tspan id="SvgjsTspan1179" dy="16" x="47.5"><tspan id="SvgjsTspan1180" style="text-decoration:;">Trajectory </tspan></tspan><tspan id="SvgjsTspan1181" dy="16" x="47.5"><tspan id="SvgjsTspan1182" style="text-decoration:;">Generation</tspan></tspan></text></g></g><g id="SvgjsG1183"><path id="SvgjsPath1184" d="M281 241.25L298.83316929132053 241.25L298.83316929132053 241.25L314.06633858264104 241.25" stroke="#323232" stroke-width="2" fill="none" marker-end="url(#SvgjsMarker1185)"></path></g><g id="SvgjsG1187"><path id="SvgjsPath1188" d="M413.66633858264106 241.25L430.5831692913205 241.25L430.5831692913205 241.25L444.9 241.25" stroke="#323232" stroke-width="2" fill="none" marker-end="url(#SvgjsMarker1189)"></path></g><g id="SvgjsG1191"><path id="SvgjsPath1192" d="M345.9990157479232 462.29834254143657L387.49950787396165 462.29834254143657L387.49950787396165 462.29834254143645L426.4 462.29834254143645" stroke="#323232" stroke-width="2" fill="none" marker-end="url(#SvgjsMarker1193)"></path></g><g id="SvgjsG1195"><path id="SvgjsPath1196" d="M345.9990157479232 462.29834254143657L387.49950787396165 462.29834254143657L387.49950787396165 462.29834254143645L426.4 462.29834254143645" stroke="#323232" stroke-width="2" fill="none" marker-end="url(#SvgjsMarker1197)"></path></g></svg>