<svg id="SvgjsSvg1006" width="754.65625" height="448.8645782470703" xmlns="http://www.w3.org/2000/svg" version="1.1" xmlns:xlink="http://www.w3.org/1999/xlink" xmlns:svgjs="http://svgjs.com/svgjs"><defs id="SvgjsDefs1007"><marker id="SvgjsMarker1100" markerWidth="14" markerHeight="10" refX="10" refY="5" viewBox="0 0 14 10" orient="auto" markerUnits="userSpaceOnUse" stroke-dasharray="0,0"><path id="SvgjsPath1101" d="M0,0 L14,5 L0,10 L0,0" fill="#ffcc99" stroke="#ffcc99" stroke-width="1"></path></marker><marker id="SvgjsMarker1104" markerWidth="14" markerHeight="10" refX="10" refY="5" viewBox="0 0 14 10" orient="auto" markerUnits="userSpaceOnUse" stroke-dasharray="0,0"><path id="SvgjsPath1105" d="M0,0 L14,5 L0,10 L0,0" fill="#ffcc99" stroke="#ffcc99" stroke-width="1"></path></marker><marker id="SvgjsMarker1108" markerWidth="14" markerHeight="10" refX="4" refY="5" viewBox="0 0 14 10" orient="auto" markerUnits="userSpaceOnUse" stroke-dasharray="0,0"><path id="SvgjsPath1109" d="M14,0 L0,5 L14,10 L14,0" fill="#66ffb3" stroke="#66ffb3" stroke-width="1"></path></marker><marker id="SvgjsMarker1112" markerWidth="14" markerHeight="10" refX="4" refY="5" viewBox="0 0 14 10" orient="auto" markerUnits="userSpaceOnUse" stroke-dasharray="0,0"><path id="SvgjsPath1113" d="M14,0 L0,5 L14,10 L14,0" fill="#66ffb3" stroke="#66ffb3" stroke-width="1"></path></marker><marker id="SvgjsMarker1116" markerWidth="14" markerHeight="10" refX="10" refY="5" viewBox="0 0 14 10" orient="auto" markerUnits="userSpaceOnUse" stroke-dasharray="0,0"><path id="SvgjsPath1117" d="M0,0 L14,5 L0,10 L0,0" fill="#99ff99" stroke="#99ff99" stroke-width="1"></path></marker><marker id="SvgjsMarker1144" markerWidth="14" markerHeight="10" refX="10" refY="5" viewBox="0 0 14 10" orient="auto" markerUnits="userSpaceOnUse" stroke-dasharray="0,0"><path id="SvgjsPath1145" d="M0,0 L14,5 L0,10 L0,0" fill="#323232" stroke="#323232" stroke-width="1"></path></marker><marker id="SvgjsMarker1148" markerWidth="14" markerHeight="10" refX="10" refY="5" viewBox="0 0 14 10" orient="auto" markerUnits="userSpaceOnUse" stroke-dasharray="0,0"><path id="SvgjsPath1149" d="M0,0 L14,5 L0,10 L0,0" fill="#323232" stroke="#323232" stroke-width="1"></path></marker><marker id="SvgjsMarker1152" markerWidth="14" markerHeight="10" refX="10" refY="5" viewBox="0 0 14 10" orient="auto" markerUnits="userSpaceOnUse" stroke-dasharray="0,0"><path id="SvgjsPath1153" d="M0,0 L14,5 L0,10 L0,0" fill="#323232" stroke="#323232" stroke-width="1"></path></marker><marker id="SvgjsMarker1156" markerWidth="14" markerHeight="10" refX="10" refY="5" viewBox="0 0 14 10" orient="auto" markerUnits="userSpaceOnUse" stroke-dasharray="0,0"><path id="SvgjsPath1157" d="M0,0 L14,5 L0,10 L0,0" fill="#323232" stroke="#323232" stroke-width="1"></path></marker></defs><g id="SvgjsG1008" transform="translate(38.00014369696072,295.27349290735265)"><path id="SvgjsPath1009" d="M 0 10.5L 691 10.5" stroke-dasharray="10,6" stroke="rgba(136,136,136,1)" stroke-width="1" fill="none"></path><path id="SvgjsPath1010" d="M 0 0L 691 0L 691 21L 0 21Z" stroke="none" fill="none"></path></g><g id="SvgjsG1011" transform="translate(26.00014369696072,76.23397850391484)"><path id="SvgjsPath1012" d="M 0 10.5L 691 10.5" stroke-dasharray="10,6" stroke="rgba(136,136,136,1)" stroke-width="1" fill="none"></path><path id="SvgjsPath1013" d="M 0 0L 691 0L 691 21L 0 21Z" stroke="none" fill="none"></path></g><g id="SvgjsG1014" transform="translate(139.50014369696072,25.003735705633744)"><path id="SvgjsPath1015" d="M 0 4Q 0 0 4 0L 453.44057948271484 0Q 457.44057948271484 0 457.44057948271484 4L 457.44057948271484 50Q 457.44057948271484 54 453.44057948271484 54L 4 54Q 0 54 0 50Z" stroke="none" fill-opacity="1" fill="#66ffb3"></path><g id="SvgjsG1016"><text id="SvgjsText1017" font-family="微软雅黑" text-anchor="middle" font-size="13px" width="438px" fill="#323232" font-weight="400" align="middle" lineHeight="125%" anchor="middle" family="微软雅黑" size="13px" weight="400" font-style="" opacity="1" y="16.375" transform="rotate(0)"></text></g></g><g id="SvgjsG1018" transform="translate(133.392241379528,320.50373570563374)"><path id="SvgjsPath1019" d="M 0 4Q 0 0 4 0L 459.54848180014756 0Q 463.54848180014756 0 463.54848180014756 4L 463.54848180014756 74.57458563535897Q 463.54848180014756 78.57458563535897 459.54848180014756 78.57458563535897L 4 78.57458563535897Q 0 78.57458563535897 0 74.57458563535897Z" stroke="none" fill-opacity="1" fill="#99ccff"></path><g id="SvgjsG1020"><text id="SvgjsText1021" font-family="微软雅黑" text-anchor="middle" font-size="13px" width="444px" fill="#323232" font-weight="400" align="middle" lineHeight="125%" anchor="middle" family="微软雅黑" size="13px" weight="400" font-style="" opacity="1" y="28.662292817679486" transform="rotate(0)"></text></g></g><g id="SvgjsG1022" transform="translate(25.00014369696072,338.29102852331323)"><path id="SvgjsPath1023" d="M 0 0L 95 0L 95 43L 0 43Z" stroke="none" fill="none"></path><g id="SvgjsG1024"><text id="SvgjsText1025" font-family="微软雅黑" text-anchor="middle" font-size="13px" width="95px" fill="#323232" font-weight="400" align="middle" lineHeight="125%" anchor="middle" family="微软雅黑" size="13px" weight="400" font-style="" opacity="1" y="2.375" transform="rotate(0)"><tspan id="SvgjsTspan1026" dy="16" x="47.5"><tspan id="SvgjsTspan1027" style="text-decoration:;">Actuation </tspan></tspan><tspan id="SvgjsTspan1028" dy="16" x="47.5"><tspan id="SvgjsTspan1029" style="text-decoration:;">Layer</tspan></tspan></text></g></g><g id="SvgjsG1030" transform="translate(170.83282086224284,337.33933116262904)"><path id="SvgjsPath1031" d="M 0 0L 175.16633858264106 0L 175.16633858264106 44.46500857232036L 0 44.46500857232036Z" stroke="rgba(50,50,50,1)" stroke-width="2" fill-opacity="1" fill="#ffffff"></path><g id="SvgjsG1032"><text id="SvgjsText1033" font-family="微软雅黑" text-anchor="middle" font-size="13px" width="156px" fill="#323232" font-weight="400" align="middle" lineHeight="125%" anchor="middle" family="微软雅黑" size="13px" weight="400" font-style="" opacity="1" y="3.1075042861601787" transform="rotate(0)"><tspan id="SvgjsTspan1034" dy="16" x="88"><tspan id="SvgjsTspan1035" style="text-decoration:;">Controller</tspan></tspan><tspan id="SvgjsTspan1036" dy="16" x="88"><tspan id="SvgjsTspan1037" style="text-decoration:;">(IDM, CFM, OVM, etc)</tspan></tspan></text></g></g><g id="SvgjsG1038" transform="translate(431.0001436969608,337.33933116262904)"><path id="SvgjsPath1039" d="M 0 0L 132 0L 132 44.46500857232036L 0 44.46500857232036Z" stroke="rgba(50,50,50,1)" stroke-width="2" fill-opacity="1" fill="#ffffff"></path><g id="SvgjsG1040"><text id="SvgjsText1041" font-family="微软雅黑" text-anchor="middle" font-size="13px" width="112px" fill="#323232" font-weight="400" align="middle" lineHeight="125%" anchor="middle" family="微软雅黑" size="13px" weight="400" font-style="" opacity="1" y="3.1075042861601787" transform="rotate(0)"><tspan id="SvgjsTspan1042" dy="16" x="66"><tspan id="SvgjsTspan1043" style="text-decoration:;">Speed,</tspan></tspan><tspan id="SvgjsTspan1044" dy="16" x="66"><tspan id="SvgjsTspan1045" style="text-decoration:;font-size: inherit;">Steering</tspan></tspan></text></g></g><g id="SvgjsG1046" transform="translate(133.392241379528,188.00373570563374)"><path id="SvgjsPath1047" d="M 0 4Q 0 0 4 0L 459.54848180014756 0Q 463.54848180014756 0 463.54848180014756 4L 463.54848180014756 94Q 463.54848180014756 98 459.54848180014756 98L 4 98Q 0 98 0 94Z" stroke="none" fill-opacity="1" fill="#99ff99"></path><g id="SvgjsG1048"><text id="SvgjsText1049" font-family="微软雅黑" text-anchor="middle" font-size="13px" width="444px" fill="#323232" font-weight="400" align="middle" lineHeight="125%" anchor="middle" family="微软雅黑" size="13px" weight="400" font-style="" opacity="1" y="38.375" transform="rotate(0)"></text></g></g><g id="SvgjsG1050" transform="translate(25.00014369696072,215.50373570563374)"><path id="SvgjsPath1051" d="M 0 0L 95 0L 95 43L 0 43Z" stroke="none" fill="none"></path><g id="SvgjsG1052"><text id="SvgjsText1053" font-family="微软雅黑" text-anchor="middle" font-size="13px" width="95px" fill="#323232" font-weight="400" align="middle" lineHeight="125%" anchor="middle" family="微软雅黑" size="13px" weight="400" font-style="" opacity="1" y="10.875" transform="rotate(0)"><tspan id="SvgjsTspan1054" dy="16" x="47.5"><tspan id="SvgjsTspan1055" style="text-decoration:;">Plan Layer</tspan></tspan></text></g></g><g id="SvgjsG1056" transform="translate(38.66648227960178,402.8701779902258)"><path id="SvgjsPath1057" d="M 0 10.5L 691 10.5" stroke-dasharray="10,6" stroke="rgba(136,136,136,1)" stroke-width="1" fill="none"></path><path id="SvgjsPath1058" d="M 0 0L 691 0L 691 21L 0 21Z" stroke="none" fill="none"></path></g><g id="SvgjsG1059" transform="translate(25.00014369696072,30.503735705633744)"><path id="SvgjsPath1060" d="M 0 0L 95 0L 95 43L 0 43Z" stroke="none" fill="none"></path><g id="SvgjsG1061"><text id="SvgjsText1062" font-family="微软雅黑" text-anchor="middle" font-size="13px" width="95px" fill="#323232" font-weight="400" align="middle" lineHeight="125%" anchor="middle" family="微软雅黑" size="13px" weight="400" font-style="" opacity="1" y="10.875" transform="rotate(0)"><tspan id="SvgjsTspan1063" dy="16" x="47.5"><tspan id="SvgjsTspan1064" style="text-decoration:;">Sense Layer</tspan></tspan></text></g></g><g id="SvgjsG1065" transform="translate(324.0001436969608,36.503735705633744)"><path id="SvgjsPath1066" d="M 0 0L 95 0L 95 31L 0 31Z" stroke="rgba(50,50,50,1)" stroke-width="2" fill-opacity="1" fill="#ffffff"></path><g id="SvgjsG1067"><text id="SvgjsText1068" font-family="微软雅黑" text-anchor="middle" font-size="13px" width="75px" fill="#323232" font-weight="400" align="middle" lineHeight="125%" anchor="middle" family="微软雅黑" size="13px" weight="400" font-style="" opacity="1" y="4.875" transform="rotate(0)"><tspan id="SvgjsTspan1069" dy="16" x="47.5"><tspan id="SvgjsTspan1070" style="text-decoration:;">Sensors</tspan></tspan></text></g></g><g id="SvgjsG1071" transform="translate(26.00014369696072,166.23397850391484)"><path id="SvgjsPath1072" d="M 0 10.5L 691 10.5" stroke-dasharray="10,6" stroke="rgba(136,136,136,1)" stroke-width="1" fill="none"></path><path id="SvgjsPath1073" d="M 0 0L 691 0L 691 21L 0 21Z" stroke="none" fill="none"></path></g><g id="SvgjsG1074" transform="translate(25.00014369696072,111.50373570563374)"><path id="SvgjsPath1075" d="M 0 0L 95 0L 95 43L 0 43Z" stroke="none" fill="none"></path><g id="SvgjsG1076"><text id="SvgjsText1077" font-family="微软雅黑" text-anchor="middle" font-size="13px" width="95px" fill="#323232" font-weight="400" align="middle" lineHeight="125%" anchor="middle" family="微软雅黑" size="13px" weight="400" font-style="" opacity="1" y="2.375" transform="rotate(0)"><tspan id="SvgjsTspan1078" dy="16" x="47.5"><tspan id="SvgjsTspan1079" style="text-decoration:;">Perception </tspan></tspan><tspan id="SvgjsTspan1080" dy="16" x="47.5"><tspan id="SvgjsTspan1081" style="text-decoration:;">Layer</tspan></tspan></text></g></g><g id="SvgjsG1082" transform="translate(139.50014369696072,104.00373570563374)"><path id="SvgjsPath1083" d="M 0 4Q 0 0 4 0L 453.44057948271484 0Q 457.44057948271484 0 457.44057948271484 4L 457.44057948271484 54Q 457.44057948271484 58 453.44057948271484 58L 4 58Q 0 58 0 54Z" stroke="none" fill-opacity="1" fill="#ffcc99"></path><g id="SvgjsG1084"><text id="SvgjsText1085" font-family="微软雅黑" text-anchor="start" font-size="13px" width="438px" fill="#323232" font-weight="400" align="middle" lineHeight="125%" anchor="start" family="微软雅黑" size="13px" weight="400" font-style="" opacity="1" y="18.375" transform="rotate(0)"></text></g></g><g id="SvgjsG1086" transform="translate(443.0001436969608,117.50373570563374)"><path id="SvgjsPath1087" d="M 0 0L 95 0L 95 31L 0 31Z" stroke="rgba(50,50,50,1)" stroke-width="2" fill-opacity="1" fill="#ffffff"></path><g id="SvgjsG1088"><text id="SvgjsText1089" font-family="微软雅黑" text-anchor="middle" font-size="13px" width="75px" fill="#323232" font-weight="400" align="middle" lineHeight="125%" anchor="middle" family="微软雅黑" size="13px" weight="400" font-style="" opacity="1" y="4.875" transform="rotate(0)"><tspan id="SvgjsTspan1090" dy="16" x="47.5"><tspan id="SvgjsTspan1091" style="text-decoration:;">Localization</tspan></tspan></text></g></g><g id="SvgjsG1092" transform="translate(185.00014369696072,117.50373570563374)"><path id="SvgjsPath1093" d="M 0 0L 95 0L 95 31L 0 31Z" stroke="rgba(50,50,50,1)" stroke-width="2" fill-opacity="1" fill="#ffffff"></path><g id="SvgjsG1094"><text id="SvgjsText1095" font-family="微软雅黑" text-anchor="middle" font-size="13px" width="75px" fill="#323232" font-weight="400" align="middle" lineHeight="125%" anchor="middle" family="微软雅黑" size="13px" weight="400" font-style="" opacity="1" y="4.875" transform="rotate(0)"><tspan id="SvgjsTspan1096" dy="16" x="47.5"><tspan id="SvgjsTspan1097" style="text-decoration:;">Detection</tspan></tspan></text></g></g><g id="SvgjsG1098"><path id="SvgjsPath1099" d="M236.50014369696078 162.00373570563374L236.50014369696078 175.00373570563374L236.50014369696078 175.00373570563374L236.50014369696078 185.40373570563372" stroke="#ffcc99" stroke-width="2" fill="none" marker-end="url(#SvgjsMarker1100)"></path></g><g id="SvgjsG1102"><path id="SvgjsPath1103" d="M496.5001436969608 158.33706967474996L496.5001436969608 172.7855240893324L496.5001436969608 172.7855240893324L496.5001436969608 187.23397850391484" stroke="#ffcc99" stroke-width="2" fill="none" marker-end="url(#SvgjsMarker1104)"></path></g><g id="SvgjsG1106"><path id="SvgjsPath1107" d="M232.60624680931676 104.00373570563374L232.60624680931676 90.00373570563374L232.60624680931676 90.00373570563374L232.60624680931676 76.00373570563372" stroke="#66ffb3" stroke-width="2" fill="none" marker-start="url(#SvgjsMarker1108)"></path></g><g id="SvgjsG1110"><path id="SvgjsPath1111" d="M492.8940405846047 104.00373570563374L492.8940405846047 90.11885710477429L492.8940405846047 90.11885710477429L492.8940405846047 76.23397850391484" stroke="#66ffb3" stroke-width="2" fill="none" marker-start="url(#SvgjsMarker1112)"></path></g><g id="SvgjsG1114"><path id="SvgjsPath1115" d="M365.1664822796017 286.00373570563374L365.1664822796017 303.25373570563374L364.1664822796017 303.25373570563374L364.1664822796017 317.9037357056337" stroke="#99ff99" stroke-width="2" fill="none" marker-end="url(#SvgjsMarker1116)"></path></g><g id="SvgjsG1118" transform="translate(167.50014369696072,221.50373570563374)"><path id="SvgjsPath1119" d="M 0 0L 112.5 0L 112.5 39.5L 0 39.5Z" stroke="rgba(50,50,50,1)" stroke-width="2" fill-opacity="1" fill="#ffffff"></path><g id="SvgjsG1120"><text id="SvgjsText1121" font-family="微软雅黑" text-anchor="middle" font-size="13px" width="93px" fill="#323232" font-weight="400" align="middle" lineHeight="125%" anchor="middle" family="微软雅黑" size="13px" weight="400" font-style="" opacity="1" y="0.625" transform="rotate(0)"><tspan id="SvgjsTspan1122" dy="16" x="56.5"><tspan id="SvgjsTspan1123" style="text-decoration:;">Mission </tspan></tspan><tspan id="SvgjsTspan1124" dy="16" x="56.5"><tspan id="SvgjsTspan1125" style="text-decoration:;">Planning</tspan></tspan></text></g></g><g id="SvgjsG1126" transform="translate(317.6664822796017,221.50373570563374)"><path id="SvgjsPath1127" d="M 0 0L 95 0L 95 39.5L 0 39.5Z" stroke="rgba(50,50,50,1)" stroke-width="2" fill-opacity="1" fill="#ffffff"></path><g id="SvgjsG1128"><text id="SvgjsText1129" font-family="微软雅黑" text-anchor="middle" font-size="13px" width="75px" fill="#323232" font-weight="400" align="middle" lineHeight="125%" anchor="middle" family="微软雅黑" size="13px" weight="400" font-style="" opacity="1" y="0.625" transform="rotate(0)"><tspan id="SvgjsTspan1130" dy="16" x="47.5"><tspan id="SvgjsTspan1131" style="text-decoration:;">Behavior </tspan></tspan><tspan id="SvgjsTspan1132" dy="16" x="47.5"><tspan id="SvgjsTspan1133" style="text-decoration:;">Planning</tspan></tspan></text></g></g><g id="SvgjsG1134" transform="translate(448.5001436969608,221.50373570563374)"><path id="SvgjsPath1135" d="M 0 0L 95 0L 95 39.5L 0 39.5Z" stroke="rgba(50,50,50,1)" stroke-width="2" fill-opacity="1" fill="#ffffff"></path><g id="SvgjsG1136"><text id="SvgjsText1137" font-family="微软雅黑" text-anchor="middle" font-size="13px" width="75px" fill="#323232" font-weight="400" align="middle" lineHeight="125%" anchor="middle" family="微软雅黑" size="13px" weight="400" font-style="" opacity="1" y="0.625" transform="rotate(0)"><tspan id="SvgjsTspan1138" dy="16" x="47.5"><tspan id="SvgjsTspan1139" style="text-decoration:;">Trajectory </tspan></tspan><tspan id="SvgjsTspan1140" dy="16" x="47.5"><tspan id="SvgjsTspan1141" style="text-decoration:;">Generation</tspan></tspan></text></g></g><g id="SvgjsG1142"><path id="SvgjsPath1143" d="M281.0001436969608 241.25373570563374L298.83331298828125 241.25373570563374L298.83331298828125 241.25373570563374L314.0664822796017 241.25373570563374" stroke="#323232" stroke-width="2" fill="none" marker-end="url(#SvgjsMarker1144)"></path></g><g id="SvgjsG1146"><path id="SvgjsPath1147" d="M413.6664822796017 241.25373570563374L430.58331298828125 241.25373570563374L430.58331298828125 241.25373570563374L444.90014369696075 241.25373570563374" stroke="#323232" stroke-width="2" fill="none" marker-end="url(#SvgjsMarker1148)"></path></g><g id="SvgjsG1150"><path id="SvgjsPath1151" d="M346.99915944488384 359.5718354487892L388.4996515709224 359.5718354487892L388.4996515709224 359.5718354487891L427.40014369696075 359.5718354487891" stroke="#323232" stroke-width="2" fill="none" marker-end="url(#SvgjsMarker1152)"></path></g><g id="SvgjsG1154"><path id="SvgjsPath1155" d="M346.99915944488384 359.5718354487892L388.4996515709224 359.5718354487892L388.4996515709224 359.5718354487891L427.40014369696075 359.5718354487891" stroke="#323232" stroke-width="2" fill="none" marker-end="url(#SvgjsMarker1156)"></path></g></svg>